<svg id="_x33_0" enable-background="new 0 0 64 64" height="512" viewBox="0 0 64 64" width="512" xmlns="http://www.w3.org/2000/svg"><g><g><g><path d="m2 9v-6c0-.55.45-1 1-1h14c.55 0 1 .45 1 1v6c0 .55-.45 1-1 1h-3v2.59c0 .78-.63 1.41-1.41 1.41-.38 0-.74-.15-1-.41l-3.59-3.59h-5c-.55 0-1-.45-1-1z" fill="#e6e9ed"/></g><g><path d="m4 54h4 4 8v3c0 .55.45 1 1 1h10c.55 0 1-.45 1-1v-3h16 2v3c0 2.76-2.24 5-5 5h-38c-2.76 0-5-2.24-5-5v-2c0-.55.45-1 1-1z" fill="#969faa"/></g><g><path d="m35.35 22h-27.35v32h-4v-34c0-1.1.9-2 2-2h28.14c.2 1.41.62 2.75 1.21 4z" fill="#ccd1d9"/></g><g><path d="m45.17 52.83c-.72-.73-1.17-1.73-1.17-2.83v-15c0-.55.45-1 1-1h1v-4.14c-4.72-.68-8.68-3.71-10.65-7.86h-27.35v32h40c-1.1 0-2.1-.45-2.83-1.17z" fill="#69d6f4"/></g><g><path d="m23 50 1 4h-4l1-4z" fill="#ff826e"/></g><g><path d="m24 48-1 2h-2l-1-2 2-2z" fill="#fc6e51"/></g><g><path d="m21 50-1 4h-8v-1.93c0-3.15 1.79-5.93 4.48-7.27l2.52 4.2 1-1z" fill="#fcd770"/></g><g><path d="m25 49 2.52-4.2c2.69 1.34 4.48 4.12 4.48 7.27v1.93h-8l-1-4 1-2z" fill="#fcd770"/></g><g><path d="m27.52 44.79v.01l-2.52 4.2-1-1-2-2 3-2c.9.13 1.75.4 2.52.79z" fill="#ffc729"/></g><g><path d="m22 46-2 2-1 1-2.52-4.2v-.01c.77-.39 1.62-.66 2.52-.79z" fill="#ffc729"/></g><g><path d="m29.61 35.18c-.4 1.2-1.09 2.27-2 3.14l-.71.68-.03-.01c.09-.31.13-.65.13-.99v-1.51c0-.87-.61-1.61-1.46-1.78-1.14-.23-2.2-.68-3.14-1.31s-1.76-1.44-2.4-2.4l-1.22.81c-1.11.74-1.78 1.99-1.78 3.33v2.86c0 .34.04.68.13.99l-.03.01-.71-.68c-.91-.87-1.6-1.94-2-3.14-.26-.78-.39-1.6-.39-2.43v-.75c0-1.3.42-2.56 1.2-3.6 1.13-1.51 2.91-2.4 4.8-2.4h4c.94 0 1.86.22 2.68.63.83.41 1.56 1.01 2.12 1.77.78 1.04 1.2 2.3 1.2 3.6v.75c0 .83-.13 1.65-.39 2.43z" fill="#656d78"/></g><g><path d="m32 54v3c0 .55-.45 1-1 1h-10c-.55 0-1-.45-1-1v-3h4z" fill="#e6e9ed"/></g><g><path d="m25 44-3 2-3-2 .57-2.26v-.01c.44.18.92.27 1.43.27h2c.51 0 .99-.09 1.43-.27v.01z" fill="#f0d0b4"/></g><g><path d="m27 36.49v1.51c0 .34-.04.68-.13.99-.32 1.26-1.24 2.28-2.44 2.74-.44.18-.92.27-1.43.27h-2c-.51 0-.99-.09-1.43-.27-1.2-.46-2.12-1.48-2.44-2.74-.09-.31-.13-.65-.13-.99v-2.86c0-1.34.67-2.59 1.78-3.33l1.22-.81c.64.96 1.46 1.77 2.4 2.4s2 1.08 3.14 1.31c.85.17 1.46.91 1.46 1.78z" fill="#f0d0b4"/></g><g><path d="m46 34h4 1c.55 0 1 .45 1 1v15c0 2.21-1.79 4-4 4-1.1 0-2.1-.45-2.83-1.17-.72-.73-1.17-1.73-1.17-2.83v-15c0-.55.45-1 1-1z" fill="#b27946"/></g><g><path d="m50 29.86v4.14h-4v-4.14c.65.09 1.32.14 2 .14s1.35-.05 2-.14z" fill="#ccd1d9"/></g><g><path d="m48 2c7.73 0 14 6.27 14 14 0 7.05-5.22 12.89-12 13.86-.65.09-1.32.14-2 .14s-1.35-.05-2-.14c-4.72-.68-8.68-3.71-10.65-7.86-.59-1.25-1.01-2.59-1.21-4-.09-.65-.14-1.32-.14-2 0-7.73 6.27-14 14-14zm10 14c0-5.52-4.48-10-10-10s-10 4.48-10 10 4.48 10 10 10 10-4.48 10-10z" fill="#cf9e76"/></g><g><circle cx="48" cy="16" fill="#fcd770" r="10"/></g></g><g><path d="m47 20.816v2.184h2v-2h2v-3c0-1.654-1.346-3-3-3-.551 0-1-.448-1-1v-1h1c.551 0 1 .448 1 1v1h2v-1c0-1.302-.839-2.402-2-2.816v-2.184h-2v2h-2v3c0 1.654 1.346 3 3 3 .551 0 1 .448 1 1v1h-1c-.551 0-1-.448-1-1v-1h-2v1c0 1.302.839 2.402 2 2.816z"/><path d="m48 27c6.065 0 11-4.935 11-11s-4.935-11-11-11-11 4.935-11 11 4.935 11 11 11zm0-20c4.962 0 9 4.037 9 9s-4.038 9-9 9-9-4.037-9-9 4.038-9 9-9z"/><path d="m63 16c0-8.271-6.729-15-15-15s-15 6.729-15 15c0 .338.029.668.051 1h-27.051c-1.654 0-3 1.346-3 3v33c-1.103 0-2 .897-2 2v2c0 3.309 2.691 6 6 6h38c3.309 0 6-2.691 6-6v-3.026c1.207-.914 2-2.348 2-3.974v-15c0-1.103-.897-2-2-2v-2.302c6.838-1.394 12-7.454 12-14.698zm-15-13c7.168 0 13 5.832 13 13s-5.832 13-13 13-13-5.832-13-13 5.832-13 13-13zm-5 32v15c0 1.13.391 2.162 1.026 3h-11.026v-.929c0-4.296-3.044-8.024-7.186-8.939l-.22-.879c.986-.604 1.736-1.534 2.117-2.644l.593-.565c1.025-.977 1.803-2.202 2.25-3.544.296-.889.446-1.812.446-2.748v-.752c0-1.506-.498-2.997-1.4-4.199-1.314-1.754-3.408-2.801-5.6-2.801h-4c-2.192 0-4.286 1.047-5.6 2.8-.902 1.203-1.4 2.694-1.4 4.2v.752c0 .936.15 1.859.446 2.748.447 1.342 1.226 2.567 2.251 3.545l.592.564c.381 1.11 1.131 2.041 2.117 2.644l-.22.879c-4.142.915-7.186 4.643-7.186 8.939v.929h-2v-30h25.744c2.069 3.902 5.804 6.79 10.256 7.698v2.302c-1.103 0-2 .897-2 2zm-27 .141v1.119c-.27-.438-.494-.904-.657-1.393-.227-.683-.343-1.395-.343-2.115v-.752c0-1.075.355-2.141 1-3 .938-1.252 2.434-2 4-2h4c1.566 0 3.061.748 4 2.001.645.858 1 1.924 1 2.999v.752c0 .72-.116 1.432-.343 2.115-.167.5-.396.978-.674 1.425-.091-1.252-1.003-2.315-2.25-2.565-2.019-.404-3.758-1.569-4.9-3.281l-.555-.832-2.051 1.367c-1.394.929-2.227 2.485-2.227 4.16zm2 0c0-1.005.5-1.938 1.336-2.496l.429-.286c1.416 1.718 3.363 2.887 5.576 3.329.382.077.66.415.66.805v1.507c0 1.654-1.346 3-3 3h-2c-1.654 0-3-1.346-3-3v-2.859zm13 17.859h-6.219l-.721-2.883.214-.428.925.925 2.668-4.447c1.899 1.301 3.133 3.487 3.133 5.904zm-9-5.586.783.783-.401.803h-.764l-.401-.803zm-.219 3.586h.438l.5 2h-1.438zm3.02-3.613-1.232-1.231 1.646-1.097c.291.057.576.127.853.218zm-3.801-4.387h2c.24 0 .47-.038.701-.071l.157.63-1.858 1.239-1.859-1.239.157-.63c.232.033.462.071.702.071zm-2.215 2.058 1.646 1.097-1.232 1.232-1.267-2.112c.276-.09.562-.16.853-.217zm-2.652 1.108 2.668 4.446.924-.924.214.429-.72 2.883h-6.219v-.929c0-2.417 1.234-4.603 3.133-5.905zm4.867 8.834h10v2h-10zm-16-35c0-.552.449-1 1-1h27.302c.14.687.342 1.35.573 2h-26.875v32h-2zm44 35v2c0 2.206-1.794 4-4 4h-38c-2.206 0-4-1.794-4-4l-.001-2h.001 16v2c0 1.103.897 2 2 2h10c1.103 0 2-.897 2-2v-2zm2-5c0 1.654-1.346 3-3 3s-3-1.346-3-3l-.001-15h.001 6zm-2-17h-2v-2.051c.332.022.662.051 1 .051s.668-.029 1-.051z"/><path d="m5 5h2v2h-2z"/><path d="m9 5h2v2h-2z"/><path d="m13 5h2v2h-2z"/><path d="m3 11h4.586l3.293 3.294c.45.448 1.072.706 1.707.706 1.331 0 2.414-1.083 2.414-2.414v-1.586h2c1.103 0 2-.897 2-2v-6c0-1.103-.897-2-2-2h-14c-1.103 0-2 .897-2 2v6c0 1.103.897 2 2 2zm0-8h14l.001 6h-4.001v3.586c0 .337-.468.531-.707.293l-3.879-3.879h-5.414z"/><path d="m35 57h2v2h-2z"/><path d="m39 57h2v2h-2z"/><path d="m43 57h2v2h-2z"/><path d="m35 49h2v2h-2z"/><path d="m39 49h2v2h-2z"/><path d="m33 45h8v2h-8z"/><path d="m33 41h8v2h-8z"/><path d="m33 37h8v2h-8z"/><path d="m33 33h8v2h-8z"/></g></g></svg>